<svg id="svg" version="1.1" xmlns="http://www.w3.org/2000/svg" xmlns:xlink="http://www.w3.org/1999/xlink" width="400" height="338.47980997624705" viewBox="0, 0, 400,338.47980997624705"><g id="svgg"><path id="path0" d="M307.614 167.280 C 306.191 174.655,302.106 186.974,298.222 195.606 C 285.184 224.578,264.721 243.361,236.105 252.622 C 234.341 253.192,231.989 253.874,230.879 254.136 C 219.817 256.745,216.738 257.269,206.770 258.240 C 202.653 258.641,186.730 258.640,182.185 258.238 C 174.923 257.597,167.831 256.732,163.282 255.933 C 160.680 255.476,157.005 254.832,155.116 254.501 C 153.226 254.170,151.251 253.803,150.728 253.685 C 149.084 253.315,148.974 253.097,152.779 257.759 C 158.783 265.116,160.217 266.754,166.022 272.889 C 174.640 281.998,185.244 291.375,192.651 296.437 C 196.757 299.243,200.541 301.696,202.375 302.742 C 203.486 303.374,205.249 304.387,206.295 304.991 C 208.087 306.028,213.870 308.766,217.815 310.445 C 223.627 312.919,237.248 316.627,240.525 316.627 C 241.518 316.627,241.500 316.581,238.904 312.233 C 236.751 308.627,236.509 309.035,241.211 308.331 C 245.671 307.664,251.716 306.519,255.344 305.654 C 258.053 305.008,259.965 304.440,266.477 302.342 C 267.700 301.947,268.880 301.590,269.097 301.549 C 269.758 301.421,275.046 299.288,277.197 298.281 C 278.308 297.761,280.232 296.883,281.473 296.330 C 291.659 291.792,305.161 281.548,311.819 273.309 C 312.438 272.542,313.440 271.306,314.045 270.563 C 325.002 257.091,330.965 236.967,329.461 218.527 C 328.534 207.170,325.120 194.444,320.681 185.802 C 320.019 184.513,319.477 183.402,319.477 183.334 C 319.477 182.716,313.881 173.274,311.541 169.943 C 308.215 165.210,308.037 165.089,307.614 167.280 " stroke="none" fill="#3bb304" fill-rule="evenodd"></path><path id="path1" d="M214.014 39.444 C 194.194 41.621,178.429 55.153,169.895 77.316 C 167.458 83.643,167.461 83.277,169.860 81.915 C 172.018 80.691,173.878 79.837,179.419 77.529 C 205.937 66.483,238.651 67.944,271.455 81.640 C 273.503 82.495,276.155 83.600,277.350 84.096 C 280.244 85.297,289.490 89.752,292.755 91.519 C 294.192 92.296,296.384 93.470,297.625 94.127 C 298.866 94.784,301.591 96.338,303.682 97.582 C 305.772 98.825,308.261 100.305,309.213 100.871 C 311.522 102.244,311.401 102.362,311.401 98.719 C 311.401 91.625,310.468 86.645,307.617 78.521 C 306.259 74.653,300.696 65.674,298.332 63.534 C 297.703 62.965,297.483 63.256,297.263 64.953 C 297.120 66.045,296.444 69.140,296.310 69.311 C 296.231 69.413,293.259 67.635,289.786 65.407 C 286.354 63.206,280.776 59.897,278.029 58.431 C 276.983 57.873,274.407 56.470,272.303 55.312 C 270.199 54.154,268.408 53.207,268.323 53.207 C 268.237 53.207,266.004 52.177,263.359 50.919 C 245.268 42.314,226.863 38.033,214.014 39.444 " stroke="none" fill="#a40434" fill-rule="evenodd"></path><path id="path2" d="M241.005 86.703 C 235.737 87.046,230.404 87.705,230.404 88.014 C 230.404 88.173,231.393 88.656,232.601 89.088 C 236.040 90.317,247.201 95.358,251.120 97.452 C 252.520 98.200,253.776 98.812,253.911 98.812 C 254.046 98.812,254.157 98.906,254.157 99.021 C 254.157 99.136,254.504 99.372,254.929 99.546 C 255.872 99.932,261.515 103.140,262.827 104.035 C 263.349 104.392,264.151 104.874,264.608 105.106 C 265.065 105.339,266.800 106.476,268.462 107.634 C 270.124 108.792,271.578 109.739,271.691 109.739 C 271.805 109.739,272.091 109.952,272.328 110.214 C 272.564 110.475,272.847 110.689,272.956 110.689 C 273.065 110.689,273.342 110.842,273.572 111.030 C 276.840 113.694,278.568 115.040,278.860 115.148 C 279.243 115.291,280.641 116.443,281.888 117.643 C 282.313 118.051,282.660 118.287,282.660 118.166 C 282.660 118.045,282.826 118.183,283.029 118.473 C 283.232 118.763,284.274 119.738,285.345 120.641 C 286.416 121.544,288.655 123.624,290.321 125.263 C 291.986 126.902,293.350 128.168,293.350 128.077 C 293.351 127.985,293.548 128.230,293.789 128.622 C 294.030 129.014,294.653 129.762,295.174 130.285 C 296.078 131.191,296.821 132.027,299.338 134.969 C 300.834 136.717,302.415 138.664,302.841 139.283 C 303.329 139.992,306.618 144.451,307.026 144.955 C 307.211 145.185,307.363 145.442,307.363 145.527 C 307.363 145.785,309.574 148.931,309.755 148.931 C 309.848 148.931,309.990 149.190,310.069 149.507 C 310.149 149.823,310.588 150.572,311.045 151.171 C 311.502 151.770,311.876 152.359,311.876 152.479 C 311.876 152.599,312.010 152.839,312.174 153.012 C 312.338 153.184,312.730 153.887,313.046 154.572 C 313.362 155.258,313.682 155.820,313.758 155.821 C 313.834 155.822,314.010 156.063,314.149 156.356 C 314.289 156.649,315.219 158.492,316.217 160.451 C 319.542 166.984,322.803 174.332,322.803 175.293 C 322.803 175.441,322.928 175.485,323.081 175.391 C 323.265 175.277,323.310 175.346,323.215 175.594 C 323.083 175.938,323.550 177.431,324.348 179.216 C 324.928 180.513,327.515 188.691,327.819 190.188 C 327.983 190.997,328.203 191.606,328.308 191.542 C 328.413 191.477,328.442 191.569,328.374 191.747 C 328.306 191.924,328.625 193.474,329.082 195.191 C 329.539 196.908,330.360 200.536,330.907 203.254 C 331.454 205.971,331.965 208.248,332.043 208.314 C 332.121 208.379,332.197 208.860,332.211 209.382 C 332.243 210.578,332.549 212.881,332.711 213.145 C 332.779 213.255,332.881 214.057,332.939 214.927 C 332.997 215.797,333.249 218.165,333.499 220.190 C 333.750 222.215,334.025 224.780,334.111 225.891 C 334.198 227.001,334.360 228.026,334.472 228.169 C 334.584 228.312,334.616 228.488,334.543 228.561 C 334.470 228.634,334.525 230.602,334.664 232.933 C 334.989 238.354,335.116 241.520,335.138 244.715 C 335.148 246.233,335.250 247.268,335.390 247.268 C 335.629 247.268,340.141 243.717,341.449 242.499 C 341.841 242.134,343.096 241.000,344.238 239.980 C 346.042 238.367,350.987 233.254,352.371 231.570 C 352.630 231.255,353.519 230.196,354.346 229.216 C 356.546 226.609,356.532 226.628,356.532 226.244 C 356.532 226.050,356.692 225.891,356.888 225.891 C 357.084 225.891,357.245 225.779,357.245 225.643 C 357.245 225.507,357.469 225.160,357.743 224.871 C 359.121 223.420,365.558 213.012,365.558 212.235 C 365.558 212.059,365.646 211.880,365.753 211.837 C 366.729 211.439,374.651 192.624,374.081 192.054 C 373.978 191.951,371.230 192.549,370.546 192.823 C 370.350 192.901,370.083 192.976,369.952 192.989 C 369.143 193.067,366.271 193.951,366.271 194.122 C 366.271 194.235,366.171 194.265,366.048 194.190 C 365.925 194.114,365.051 194.266,364.105 194.529 C 363.159 194.791,362.372 194.980,362.357 194.949 C 362.341 194.918,361.539 192.488,360.573 189.549 C 358.445 183.074,356.455 177.447,355.575 175.416 C 355.348 174.893,354.818 173.557,354.396 172.447 C 353.975 171.336,353.411 169.947,353.143 169.359 C 352.874 168.771,352.630 168.129,352.600 167.933 C 352.569 167.738,351.798 165.968,350.887 164.001 C 349.976 162.034,349.148 160.163,349.049 159.844 C 348.888 159.329,345.599 152.701,344.105 149.881 C 343.794 149.293,343.311 148.305,343.032 147.684 C 342.752 147.064,342.416 146.556,342.283 146.556 C 342.151 146.556,342.043 146.432,342.043 146.280 C 342.043 146.128,341.391 144.872,340.595 143.489 C 338.306 139.511,337.617 138.399,337.083 137.820 C 336.808 137.523,336.608 137.202,336.638 137.108 C 336.717 136.855,332.842 131.133,332.692 131.283 C 332.622 131.353,332.494 131.127,332.407 130.782 C 332.320 130.436,332.048 130.046,331.802 129.914 C 331.555 129.782,331.354 129.554,331.354 129.407 C 331.354 129.187,330.458 127.915,328.396 125.208 C 328.259 125.029,327.800 124.510,327.375 124.056 C 326.951 123.602,326.603 123.172,326.603 123.102 C 326.603 122.943,324.531 120.486,323.847 119.835 C 323.572 119.573,322.885 118.824,322.320 118.171 C 321.756 117.518,321.212 117.008,321.113 117.038 C 321.013 117.068,320.871 116.901,320.796 116.667 C 320.399 115.415,309.422 105.693,306.135 103.682 C 305.921 103.551,304.747 102.741,303.525 101.881 C 302.303 101.021,300.823 100.048,300.236 99.720 C 299.649 99.392,298.207 98.583,297.031 97.922 C 291.295 94.700,277.163 89.101,276.227 89.680 C 276.125 89.743,275.982 89.696,275.908 89.576 C 275.834 89.456,275.454 89.380,275.064 89.407 C 274.675 89.434,274.327 89.376,274.292 89.278 C 274.191 88.994,264.928 87.394,260.689 86.928 C 257.739 86.604,244.806 86.456,241.005 86.703 " stroke="none" fill="#f33b04" fill-rule="evenodd"></path><path id="path3" d="M76.247 92.884 C 69.014 96.806,61.461 102.595,57.068 107.585 C 56.197 108.573,55.249 109.596,54.960 109.857 C 51.513 112.973,43.502 125.763,40.369 133.151 C 39.818 134.449,39.293 135.618,39.201 135.748 C 38.913 136.159,37.338 140.001,37.254 140.499 C 37.210 140.760,37.104 141.027,37.019 141.093 C 36.718 141.324,32.620 154.176,32.436 155.463 C 32.399 155.724,32.245 156.245,32.093 156.620 C 31.460 158.193,29.001 169.595,27.809 176.485 C 26.257 185.456,25.574 191.449,26.104 191.449 C 26.238 191.449,27.186 190.888,28.211 190.202 C 29.235 189.516,32.289 187.512,34.997 185.748 C 37.705 183.985,41.490 181.498,43.409 180.224 L 46.899 177.905 49.043 180.008 C 50.223 181.164,51.720 182.581,52.371 183.157 C 53.022 183.733,54.304 184.903,55.221 185.757 C 56.138 186.611,57.530 187.838,58.314 188.483 C 59.097 189.129,60.449 190.286,61.318 191.055 C 62.187 191.824,62.988 192.457,63.099 192.462 C 63.211 192.467,63.409 192.606,63.539 192.771 C 63.824 193.131,69.096 197.401,70.705 198.575 C 71.331 199.032,72.818 200.154,74.008 201.069 C 80.171 205.806,93.002 214.194,100.000 218.062 C 108.590 222.810,118.413 227.701,122.803 229.416 C 123.783 229.799,126.399 230.880,128.618 231.819 C 133.395 233.842,145.868 238.068,151.069 239.427 C 159.083 241.520,170.004 243.860,173.753 244.286 C 174.406 244.360,176.704 244.630,178.860 244.886 C 191.073 246.335,205.944 246.383,216.271 245.006 C 217.708 244.814,219.722 244.551,220.747 244.422 C 237.583 242.295,255.812 233.911,267.352 222.988 C 269.827 220.645,269.849 220.503,267.710 220.624 C 254.696 221.359,227.553 218.320,211.876 214.371 C 209.590 213.795,206.794 213.101,205.663 212.828 C 194.178 210.056,174.019 201.328,162.352 194.075 C 132.463 175.496,110.177 150.103,91.876 113.777 C 90.329 110.707,88.521 106.966,87.857 105.463 C 85.357 99.808,82.257 92.481,81.951 91.508 C 81.507 90.092,81.305 90.141,76.247 92.884 " stroke="none" fill="#042bb4" fill-rule="evenodd"></path><path id="path4" d="M128.948 22.192 C 128.899 22.235,127.898 22.340,126.722 22.424 C 122.744 22.708,119.106 23.256,114.058 24.332 C 113.102 24.536,112.274 24.703,112.217 24.703 C 111.793 24.703,113.663 27.282,114.973 28.504 C 115.043 28.569,115.790 29.477,116.632 30.523 C 117.475 31.568,119.288 33.746,120.662 35.363 C 122.035 36.979,123.559 38.796,124.047 39.401 L 124.935 40.499 123.576 41.686 C 119.031 45.658,111.164 55.008,111.164 56.438 C 111.164 56.599,111.084 56.766,110.986 56.809 C 109.530 57.456,103.857 71.123,103.207 75.546 C 103.122 76.128,102.902 77.394,102.719 78.360 C 101.708 83.680,101.746 98.166,102.777 100.713 C 102.856 100.909,102.897 101.309,102.869 101.603 C 102.840 101.897,102.916 102.138,103.038 102.138 C 103.160 102.138,103.211 102.389,103.153 102.697 C 103.003 103.481,104.759 110.415,106.078 114.252 C 106.685 116.015,107.337 117.939,107.527 118.527 C 109.009 123.119,116.359 137.796,117.379 138.203 C 117.488 138.246,117.577 138.424,117.577 138.598 C 117.577 138.772,118.459 140.224,119.537 141.825 C 120.615 143.425,121.604 144.904,121.735 145.111 C 126.753 153.020,139.002 166.044,148.812 173.901 C 153.481 177.640,159.099 181.460,164.095 184.292 C 167.663 186.315,168.088 186.489,167.821 185.808 C 165.725 180.464,160.906 164.305,159.238 157.022 C 154.059 134.415,152.880 121.517,154.298 102.969 C 154.751 97.045,156.364 89.810,159.143 81.235 C 161.352 74.418,168.772 61.087,171.968 58.195 C 172.040 58.129,172.665 57.381,173.357 56.532 C 179.892 48.514,190.758 40.025,202.257 33.953 C 204.967 32.522,204.871 32.583,204.704 32.416 C 204.437 32.149,187.486 27.895,184.917 27.451 C 184.525 27.383,181.051 26.733,177.197 26.006 C 170.485 24.740,160.774 23.258,157.007 22.925 C 156.027 22.839,154.852 22.727,154.394 22.677 C 149.964 22.194,129.380 21.801,128.948 22.192 " stroke="none" fill="#046b8b" fill-rule="evenodd"></path></g></svg>